<svg xmlns="http://www.w3.org/2000/svg" viewBox="0 0 96.008708 95.912354" height="102.307" width="102.409"><path d="M1.664 94.084C.18 92.445.009 88.036.009 51.739.009 4.89-.658 7.912 9.682 7.912c4.747 0 6.399-.422 7.827-2 1.292-1.427 3.08-2 6.247-2 2.923 0 5.305-.682 6.98-2 3.241-2.55 7.304-2.55 10.546 0 1.675 1.318 4.056 2 6.98 2 3.167 0 4.955.573 6.247 2 1.438 1.59 3.08 2 8 2 8.516 0 9.5 1.225 9.5 11.83 0 4.493.287 8.17.638 8.17.35 0 2.59-1.8 4.978-4 5.778-5.326 10.085-5.498 14.984-.6 2.615 2.616 3.4 4.237 3.4 7.023 0 4.005-2.004 6.518-16.237 20.37l-7.763 7.554v17.172c0 15.365-.193 17.345-1.829 18.826-1.623 1.469-5.492 1.655-34.345 1.655-30.231 0-32.633-.128-34.171-1.828zM67.76 76.912l.251-14.5-6.498 6.638c-6.3 6.435-6.765 6.703-15.266 8.804-10.271 2.537-21.738 2.568-21.738.058 0-1.137 1.473-1.57 6.088-1.793l6.088-.294 1.162-5.032c.639-2.768 1.162-5.43 1.162-5.913 0-.484-3.263-1.012-7.25-1.174-5.647-.229-7.25-.625-7.25-1.794 0-1.193 1.74-1.559 8.5-1.789l8.5-.289 5.785-5.71 5.786-5.712-14.286-.5c-11.81-.413-14.285-.76-14.285-2 0-1.261 2.622-1.544 16.495-1.776l16.494-.276 5.287-5.22 5.286-5.221-.281-10.503-.281-10.504-5.622-.296c-4.954-.26-5.684-.053-6.156 1.75-.516 1.972-1.232 2.046-19.722 2.046-18.49 0-19.207-.074-19.723-2.046-.471-1.803-1.202-2.01-6.156-1.75l-5.621.296-.262 38.498c-.145 21.173-.044 39.067.224 39.764.38.993 7.244 1.21 31.762 1.003l31.276-.265.251-14.5zM9.664 82.084c-3.588-3.965-.83-10.172 4.518-10.172 5.122 0 7.792 6.912 3.998 10.345-2.415 2.186-6.456 2.104-8.516-.173zm5.899-3.259c1.03-1.667-1.288-3.58-2.667-2.2-1.154 1.154-.432 3.287 1.113 3.287.485 0 1.184-.489 1.554-1.087zm-5.9-12.741c-2.185-2.416-2.103-6.456.174-8.517 3.965-3.587 10.172-.83 10.172 4.52 0 5.12-6.911 7.791-10.345 3.997zm5.9-3.259c1.03-1.667-1.288-3.58-2.667-2.2-1.154 1.154-.432 3.287 1.113 3.287.485 0 1.184-.489 1.554-1.087zm-5.9-12.741c-3.587-3.965-.83-10.172 4.52-10.172 5.12 0 7.791 6.912 3.997 10.345-2.415 2.186-6.456 2.104-8.516-.173zm5.9-3.259c1.03-1.667-1.288-3.58-2.667-2.2-1.154 1.154-.432 3.287 1.113 3.287.485 0 1.184-.489 1.554-1.087zm-5.9-12.741c-2.185-2.416-2.103-6.456.174-8.517 3.965-3.587 10.172-.83 10.172 4.52 0 5.12-6.911 7.791-10.345 3.997zm5.9-3.259c1.03-1.667-1.288-3.58-2.667-2.2-1.154 1.154-.432 3.287 1.113 3.287.485 0 1.184-.489 1.554-1.087zm8.905.022c-1.55-2.507 1.89-2.97 20.113-2.707 16.037.23 18.928.501 18.928 1.772 0 1.272-2.918 1.542-19.178 1.772-13.229.187-19.39-.073-19.863-.837zm22.098 42.947c5.12-1.29 5.488-2.564 1.806-6.245-3.681-3.682-4.955-3.313-6.245 1.806-1.635 6.496-2.057 6.074 4.439 4.439zm32.207-36.591L74.07 32.5 60.167 46.29 46.264 60.083l4.623 4.75 4.622 4.75 13.983-13.839 13.983-13.838-4.702-4.702zm10.647-1.367c3.1-3.686 3.31-7.203.589-9.924-2.817-2.816-6.428-2.486-10.235.937l-3.265 2.936 4.458 4.564c2.452 2.51 4.774 4.563 5.161 4.563.387 0 1.868-1.384 3.292-3.076zM51.823 10.162c-.256-1.346-1.516-1.818-5.462-2.048-3.542-.206-5.677-.903-6.896-2.25-.971-1.073-2.527-1.952-3.456-1.952-.93 0-2.485.879-3.456 1.952-1.22 1.347-3.355 2.044-6.896 2.25-3.946.23-5.206.702-5.462 2.048-.306 1.609.976 1.75 15.814 1.75 14.838 0 16.12-.141 15.814-1.75z" fill="#050505"/></svg>