<svg xmlns="http://www.w3.org/2000/svg" viewBox="0 0 79.83922 95.951863" height="102.349" width="85.162"><path d="M60.447 94.76c-.269-.703.375-5.491 1.431-10.642 1.887-9.197 1.887-9.42.025-12.473-5.607-9.196 3.44-19.103 12.952-14.184 5.067 2.62 6.493 8.851 3.246 14.176-1.858 3.048-1.856 3.273.092 12.862 2.357 11.599 1.868 12.77-4.196 10.036-3.836-1.73-4.268-1.74-7.567-.167-4.199 2.002-5.336 2.076-5.983.391zM72.5 88.853c2.862 1.304 2.81 1.589 1.165-6.318-1.109-5.336-1.515-6-3.665-6-2.15 0-2.556.664-3.665 6-1.644 7.907-1.697 7.622 1.165 6.318 1.87-.852 3.13-.852 5 0zM74 70.036c1.1-1.1 2-2.9 2-4 0-2.576-3.424-6-6-6-1.1 0-2.9.9-4 2s-2 2.9-2 4 .9 2.9 2 4 2.9 2 4 2 2.9-.9 4-2zM.682 87.385C.307 87.01 0 72.92 0 56.075V25.448l12.724-12.724L25.448 0l23.026.268L71.5.536v25.5c0 22-.206 25.5-1.5 25.5-1.284 0-1.539-3.425-1.768-23.75l-.268-23.75h-39.9l-.282 11.75-.282 11.75-11.75.281L4 28.1v55.902l25.75.267c22.104.229 25.75.48 25.75 1.767 0 1.29-3.792 1.537-27.068 1.765-14.887.147-27.374-.04-27.75-.416zM24 15.535c0-4.674-.122-8.5-.272-8.5-.15 0-4.077 3.826-8.728 8.5l-8.456 8.5H24v-8.5zM8.469 74.986c-1.4-2.264 1.413-3.025 10.122-2.74 7.123.232 8.909.591 8.909 1.79 0 1.204-1.813 1.557-9.168 1.787-5.997.188-9.41-.102-9.863-.837zm-.012-16.018c-1.578-2.554 2.044-2.96 24.112-2.7 19.597.23 22.931.487 22.931 1.769s-3.361 1.539-23.18 1.768c-16.115.187-23.388-.069-23.863-.837zm0-16.002c-.375-.607-.264-1.522.247-2.033.54-.54 12.21-.818 27.863-.663 23.156.23 26.933.477 26.933 1.767s-3.805 1.537-27.18 1.766c-19.001.186-27.387-.066-27.864-.837zm28.007-15.988c-1.478-2.391 1.646-2.994 14.118-2.722 10.691.232 12.918.54 12.918 1.78 0 1.244-2.254 1.548-13.173 1.78-8.893.187-13.397-.085-13.863-.838z" fill="#030303"/></svg>