<svg xmlns="http://www.w3.org/2000/svg" viewBox="0 0 94.087919 89.743445" height="95.726" width="100.36"><path d="M63.52 67.781C46.069 50.315 41.814 45.548 42.797 44.564c.984-.983 3.594 1.112 12.711 10.204 10.89 10.859 11.562 11.352 13.209 9.705 1.647-1.647 1.001-2.47-12.709-16.205-11.492-11.513-14.19-14.724-13.204-15.71.986-.987 6.345 3.862 26.218 23.724 26.301 26.285 27.48 27.905 23.15 31.823-4.14 3.747-5.715 2.63-28.65-20.324zM89.764 83.75c.157-.819-3.547-5.3-8.232-9.96-8.07-8.026-8.608-8.38-10.245-6.743-1.638 1.637-1.284 2.175 6.743 10.245 8.06 8.105 11.097 9.776 11.734 6.458zM12.428 42.433c-.28-.73-.087-3.993.429-7.25s.872-5.986.79-6.064c-.08-.078-3.184-1.512-6.897-3.188C3.038 24.256 0 22.371 0 21.741c0-.63 3.152-2.546 7.005-4.258 5.053-2.245 6.885-3.546 6.573-4.668-.238-.855-.733-3.915-1.099-6.8-.885-6.973.675-7.5 7.929-2.684L26 7.044l5.592-3.713c7.254-4.817 8.814-4.289 7.929 2.684-.366 2.885-.86 5.945-1.099 6.8-.312 1.122 1.52 2.423 6.573 4.668C48.848 19.195 52 21.12 52 21.76c0 .641-3.152 2.566-7.005 4.278-5.053 2.245-6.885 3.546-6.573 4.668.238.855.733 3.915 1.099 6.8.885 6.973-.675 7.5-7.929 2.684L26 36.477l-5.485 3.642c-5.958 3.956-7.309 4.342-8.087 2.314zm11.322-9.76c2.385-1.477 2.285-1.51 9.12 2.934l2.371 1.541-.717-5.214-.717-5.214 5.073-2.23c2.79-1.226 5.073-2.455 5.073-2.73 0-.275-2.283-1.503-5.073-2.73l-5.073-2.23.717-5.213.717-5.214-2.37 1.54c-7.565 4.919-6.176 4.919-13.742 0l-2.37-1.54.717 5.214.717 5.214-5.073 2.23c-2.79 1.226-5.073 2.454-5.073 2.73 0 .274 2.283 1.503 5.073 2.73l5.073 2.23-.717 5.213-.717 5.214 2.37-1.54a302.073 302.073 0 0 1 4.621-2.935zm.696 10c-1.03-1.667 1.287-3.58 2.667-2.2 1.154 1.154.432 3.287-1.113 3.287-.485 0-1.184-.489-1.554-1.087zm-20-8c-1.03-1.667 1.287-3.58 2.667-2.2C8.267 33.627 7.545 35.76 6 35.76c-.485 0-1.184-.489-1.554-1.087zm0-24c-1.03-1.667 1.287-3.58 2.667-2.2C8.267 9.627 7.545 11.76 6 11.76c-.485 0-1.184-.489-1.554-1.087zm40 0c-1.03-1.667 1.287-3.58 2.667-2.2 1.154 1.154.432 3.287-1.113 3.287-.485 0-1.184-.489-1.554-1.087zm-20-8c-1.03-1.667 1.287-3.58 2.667-2.2C28.267 1.627 27.545 3.76 26 3.76c-.485 0-1.184-.489-1.554-1.087z" fill="#0b0b0b"/></svg>