<svg xmlns="http://www.w3.org/2000/svg" viewBox="0 0 96.315962 96.32551" height="102.747" width="102.737"><path d="M11.908 94.163c-5.578-2.789-5.019-4.556 2.939-9.283 3.882-2.306 7.056-4.48 7.054-4.83-.01-1.688-4.139-7.135-5.41-7.135-.793 0-4.17 1.625-7.504 3.61C1.222 81.151-.517 80.66.12 74.023c.938-9.766 8.116-16.76 18.49-18.019 6.442-.78 8.87-1.838 11.805-5.143 1.667-1.876 1.746-2.317.49-2.724-.826-.266-8.026-6.939-16-14.826L.405 18.969v-5.094c0-4.792.286-5.365 4.82-9.65C9.798-.093 10.283-.302 14.605.186c4.297.484 5.35 1.305 18.44 14.37 7.635 7.62 14.133 14.644 14.439 15.607.855 2.694 2.138 2.125 5.415-2.397 1.93-2.666 3.006-5.36 3.006-7.533 0-11.225 11.38-21.324 22.603-20.059 4.767.538 9.684 3.375 10.177 5.872.166.84-2.383 2.977-6.25 5.239-3.591 2.1-6.528 4.115-6.526 4.475.01 1.742 4.146 7.156 5.466 7.156.825 0 3.766-1.395 6.536-3.1 6.604-4.062 8.425-3.42 7.732 2.73-1.084 9.617-10.09 17.37-20.18 17.37-4.89 0-5.377.254-10.566 5.508l-5.44 5.508 10.456 10.492c8.177 8.205 11.051 10.492 13.185 10.492 3.534 0 5.613 2.33 9.8 10.986l3.418 7.064-3.18 3.18-3.18 3.18-7.065-3.417c-8.655-4.187-10.986-6.266-10.986-9.8 0-2.134-2.284-5.005-10.47-13.164L50.965 59.51l-2.666 2.452c-5.003 4.604-8.394 10.111-8.394 13.635 0 13.701-16.217 24.456-27.997 18.566zm15.416-4.603c3.919-2.568 7.635-8.147 8.194-12.302.973-7.234 1.443-8.4 4.956-12.288 3.27-3.619 3.377-3.938 1.524-4.526-1.097-.348-2.994-2.297-4.217-4.331-1.223-2.034-2.358-3.874-2.523-4.089-.165-.214-2.1 1.237-4.301 3.225-4.09 3.695-5.358 4.19-12.84 5.013-2.452.27-5.708 1.557-7.609 3.006-3.22 2.457-7.323 9.26-6.238 10.344.294.295 2.814-.867 5.6-2.58 2.786-1.715 5.551-3.117 6.146-3.117 2.156 0 6.68 4.04 8.266 7.381 2.779 5.856 2.221 7.291-4.478 11.527-3.891 2.46-5.612 4.072-4.75 4.448 2.3 1.007 9.697-.025 12.27-1.711zm63.553.105c-.016-.688-1.478-3.95-3.25-7.25-2.436-4.537-3.832-6.082-5.722-6.334-1.596-.214-6.87-4.642-14.59-12.25-6.648-6.554-12.33-11.916-12.627-11.916-.296 0-1.106.684-1.8 1.52-1.07 1.29.564 3.372 10.794 13.75 7.708 7.82 12.176 13.131 12.39 14.73.252 1.89 1.796 3.285 6.333 5.722 6.499 3.49 8.516 3.972 8.472 2.028zM47.404 53.347c1.852-1.412 4.56-4.132 6.019-6.045 3.039-3.984 2.436-5.544-3.026-7.826-2.121-.887-4.173-3.096-6.215-6.692-1.79-3.155-8.01-10.216-15.078-17.12C15.166 2.053 13.476 1.412 7.438 7.449c-6.037 6.037-5.396 7.727 8.217 21.665 6.865 7.029 13.97 13.291 17.087 15.061 3.045 1.728 5.813 4.15 6.444 5.635 1.1 2.593 3.656 6.106 4.44 6.106.227 0 1.927-1.156 3.778-2.568zm28.35-17.91c4.736-.018 6.453-.516 9.32-2.702 3.105-2.368 7.29-8.695 6.364-9.62-.19-.19-2.178.813-4.419 2.227-2.24 1.415-4.576 2.573-5.19 2.573-2.187 0-6.704-4.017-8.3-7.382-2.691-5.67-2.16-7.367 3.376-10.81 5.638-3.504 6.095-4.495 2.493-5.4-8.758-2.198-19.493 6.921-19.493 16.558 0 3.883-1.317 6.559-5.302 10.769-1.683 1.779-2.867 3.388-2.63 3.576.238.188 2.096 1.342 4.13 2.565 2.035 1.222 3.993 3.15 4.352 4.282.603 1.899.996 1.723 5.072-2.278 4.18-4.102 4.734-4.338 10.226-4.359z" fill="#0b0b0b"/></svg>