<svg xmlns="http://www.w3.org/2000/svg" viewBox="0 0 95.768173 95.500002" height="101.867" width="102.153"><path d="M9.757 94.8c-.825-.298-3.183-2.15-5.24-4.115C.41 86.763-.938 82.456.642 78.3c.61-1.605 9.28-9.576 21.615-19.874l20.596-17.195-2.223-2.366c-1.582-1.684-3.318-2.365-6.03-2.365-2.797 0-4.679-.776-7.076-2.918-2.876-2.57-3.266-3.524-3.266-7.994v-5.076l10.256-10.256L44.77 0h5.076c4.47 0 5.425.39 7.994 3.266 2.115 2.367 2.918 4.289 2.918 6.983 0 3.378.933 4.652 10.232 13.984C80.338 33.613 81.546 34.5 84.974 34.5c2.732 0 4.639.793 7.017 2.918 2.876 2.57 3.266 3.524 3.266 7.994v5.076L85.001 60.744 74.745 71h-5.076c-4.47 0-5.424-.39-7.994-3.266-2.142-2.397-2.918-4.279-2.918-7.075 0-2.714-.68-4.45-2.366-6.033l-2.366-2.223L36.83 72.999C18.498 94.958 15.926 97.03 9.757 94.8zm8.47-6.55c1.893-1.788 9.964-11.123 17.937-20.746l14.495-17.497-2.63-2.746c-2.248-2.346-2.86-2.552-4.201-1.414-.864.732-9.77 8.158-19.791 16.503C14.016 70.694 5.316 78.457 4.703 79.6c-1.556 2.909.548 7.62 4.475 10.014 4.164 2.54 5.059 2.404 9.05-1.365zm55.33-22.154c3.679-1.913 16.738-15.543 17.647-18.42 1.052-3.326-1.2-8.076-4.182-8.824-2.154-.541-3.94.835-13.51 10.404-9.497 9.499-10.94 11.364-10.412 13.473.584 2.326 3.646 4.557 6.457 4.703.715.038 2.515-.564 4-1.336zM68.528 26.77L58.295 16.502l-8.67 8.63-8.671 8.63 10.151 10.254 10.152 10.253 8.752-8.616 8.752-8.615L68.528 26.77zm-22.37-5.17C55.56 12.168 56.94 10.366 56.403 8.226c-.746-2.973-5.501-5.223-8.822-4.173-2.94.93-16.526 14.004-18.501 17.805-2.328 4.477.288 10.642 4.516 10.642.932 0 6.585-4.905 12.562-10.9zm6.484 72.65c-.32-3.472.485-5.495 3.184-8 2.95-2.738 3.027-2.75 17.497-2.75 16.249 0 19.3.846 21.407 5.935 2.484 5.995 2.243 6.065-20.94 6.065-16.097 0-21.059-.293-21.147-1.25zm38.115-3.715c0-2.223-4.624-3.035-17.279-3.035-12.14 0-13.582.19-15.22 2-1.804 1.993-1.747 2 15.344 2 10.353 0 17.155-.383 17.155-.965z" fill="#0c0c0c"/></svg>