<svg xmlns="http://www.w3.org/2000/svg" width="102.898" height="90.675" viewBox="0 0 102.89827 90.675255"><path d="M4.5 90.295C-.085 89.125 0 89.975 0 45.45 0 8.322.192 2.95 1.572 1.571 2.956.187 8.816 0 50.88 0c39.64 0 48.067.24 49.679 1.419 1.86 1.359 1.953 3.165 2.223 42.85.27 39.759.203 41.529-1.661 43.831l-1.943 2.4-46.339.153c-25.486.084-47.239-.077-48.339-.358zM96 50V16H6v68h90V50zM26.131 61.92c-3.503-.453-6.56-1.015-6.793-1.248-.233-.233 4.433-2.132 10.37-4.22 5.935-2.087 10.977-3.94 11.203-4.118.226-.178-1.353-2.463-3.509-5.079-7.182-8.713-6.899-8.187-5.276-9.81 1.272-1.272 3.058-.808 14.27 3.708l12.815 5.161 12.856-4.147c10.2-3.29 13.38-3.947 15.395-3.182 6.922 2.632.842 6.064-27.528 15.537-13.964 4.663-25.85 8.42-26.412 8.351-.562-.07-3.888-.498-7.391-.952zm-10.637-5.927c-2.205-2.3-2.605-3.282-1.707-4.18.898-.898 2.352-.622 6.193 1.178 2.761 1.293 5.02 2.68 5.02 3.082C25 56.616 19.737 59 18.538 59c-.09 0-1.46-1.353-3.044-3.007zM73 10c2.16-4.037-2.613-7.987-5.8-4.8-1.573 1.573-1.541 5.496.05 6.138 2.645 1.067 4.721.584 5.75-1.338zm10.96.548c1.555-1.873 1.012-4.537-1.21-5.936-3.465-2.182-7.366 2.735-4.71 5.936a3.837 3.837 0 0 0 5.92 0zm10.458.845c1.865-.715 2.097-4.479.382-6.193-3.187-3.187-7.96.763-5.8 4.8 1.1 2.056 2.651 2.455 5.418 1.393z" fill="#fff"/></svg>