<svg xmlns="http://www.w3.org/2000/svg" viewBox="0 0 96 88" height="88" width="96"><path d="M5.483 86.604C.55 83.87.446 83.006.408 44.2.37 4.814.521 3.62 5.845 1.195c4.146-1.89 81.69-1.68 85.383.23C96.206 3.999 96.373 5.379 96.373 44c0 38.62-.167 40-5.145 42.575-3.905 2.02-82.107 2.046-85.745.03zM90.373 82c1.911-1.911 2-3.333 2-32V20h-88v30c0 28.667.089 30.089 2 32 1.933 1.933 3.333 2 42 2s40.067-.067 42-2zM24.515 69.896c-7.781-3.95-12.757-13.147-11.905-22.007 1.11-11.555 11.504-20.468 22.935-19.67C47.13 29.03 56.373 38.697 56.373 50c0 6.526-4.274 14.543-9.837 18.453-5.83 4.097-15.538 4.733-22.021 1.443zm15-2.919c4.705-1.307 6.339-3.21 4.962-5.783C43.27 58.942 37.549 56 34.373 56c-3.176 0-8.899 2.942-10.104 5.194-2.501 4.674 6.689 8.16 15.246 5.783zM26.475 54c.522 0 .263-1.328-.576-2.95-1.837-3.552-1.924-6.082-.331-9.578 3.131-6.874 13.89-7.076 17.38-.327 1.829 3.537 1.802 6.226-.1 9.905-.84 1.622-1.1 2.95-.578 2.95.522 0 2.34 1.39 4.04 3.09l3.09 3.09 1.486-3.558c2.086-4.993 1.853-9.473-.763-14.652-6.63-13.123-24.87-13.123-31.5 0-2.616 5.179-2.85 9.66-.763 14.652l1.486 3.558 3.09-3.09c1.7-1.7 3.518-3.09 4.04-3.09zm11.898-4c1.1-1.1 2-2.9 2-4 0-2.576-3.425-6-6-6-1.1 0-2.9.9-4 2s-2 2.9-2 4 .9 2.9 2 4 2.9 2 4 2 2.9-.9 4-2zM60.79 66.647c-.3-.78-.403-3.382-.231-5.783l.313-4.364h23v11l-11.269.283c-8.997.226-11.378-.003-11.813-1.136zM80.373 62c0-1.833-.667-2-8-2s-8 .167-8 2 .667 2 8 2 8-.167 8-2zM60.79 42.647c-.3-.78-.403-3.382-.231-5.783l.313-4.364h23v11l-11.269.283c-8.997.226-11.378-.003-11.813-1.136zM80.373 38c0-1.833-.667-2-8-2s-8 .167-8 2 .667 2 8 2 8-.167 8-2zm12-26c0-2.667-.667-4.667-2-6-1.933-1.933-3.333-2-42-2s-40.067.067-42 2c-1.333 1.333-2 3.333-2 6v4h88v-4zm-84-2c0-1.333.667-2 2-2s2 .667 2 2-.667 2-2 2-2-.667-2-2zm8 0c0-1.333.667-2 2-2s2 .667 2 2-.667 2-2 2-2-.667-2-2zm8 0c0-1.333.667-2 2-2s2 .667 2 2-.667 2-2 2-2-.667-2-2z" fill="#fff"/></svg>