<svg xmlns="http://www.w3.org/2000/svg" viewBox="0 0 95.41082 87.105843" height="87.106" width="95.411"><path d="M10.285 86.818C1.14 86.15 1.04 85.905.267 62.163c-.36-11.07-.355-28.566.011-38.879.629-17.698.793-18.878 2.933-21.017L5.478 0H47.2c31.753 0 42.25.301 43.928 1.262 3.787 2.166 4.283 7.052 4.283 42.238 0 35.194-.498 40.098-4.283 42.204-1.616.9-11.967 1.267-38.706 1.376-20.075.082-39.037-.037-42.137-.262zm79.718-5.76c1.15-1.572 1.419-7.59 1.419-31.75V19.5h-88l.088 25.75c.106 31.42.51 35.235 3.912 36.977 1.932.989 11.436 1.222 41.831 1.026 37.623-.242 39.393-.337 40.75-2.194zm-55.581-11.88c0-1.277.711-4.409 1.58-6.96l1.58-4.638-3.713-3.29c-2.042-1.81-4.328-3.65-5.08-4.09-.752-.44-1.367-1.677-1.367-2.75 0-1.646.741-1.966 4.75-2.05 7.892-.165 9.27-.925 11.28-6.218 3.525-9.287 4.893-9.362 8.47-.464 2.276 5.661 3.687 6.504 11.19 6.682 2.306.055 4.508.612 4.895 1.238.41.662-1.449 3.213-4.436 6.093-5.402 5.207-5.528 5.735-3.003 12.584 1.297 3.516 1.024 6.185-.631 6.185-.817 0-3.818-1.436-6.67-3.19l-5.185-3.19-5.76 3.19c-6.87 3.805-7.9 3.919-7.9.868zm57-57.487c0-2.095-.639-4.682-1.42-5.75C88.639 4.075 87.02 4 48.039 4 2.568 4 4.75 3.638 3.714 11.362L3.159 15.5h88.263v-3.809zm-83-2.191c0-1.111.667-2 1.5-2s1.5.889 1.5 2-.667 2-1.5 2-1.5-.889-1.5-2zm8 0c0-1.111.667-2 1.5-2s1.5.889 1.5 2-.667 2-1.5 2-1.5-.889-1.5-2zm8 0c0-1.111.667-2 1.5-2s1.5.889 1.5 2-.667 2-1.5 2-1.5-.889-1.5-2z"/></svg>