<svg xmlns="http://www.w3.org/2000/svg" width="74.602" height="119.663" viewBox="0 0 74.602333 119.66254"><path d="M6.371 98.033C5.303 97.24 3.73 92.48 2.061 84.99c-2.55-11.447-2.577-11.924-.938-16.215 1.1-2.88 3.407-5.86 6.619-8.55 4.856-4.066 4.93-4.214 4.93-9.875 0-15.404 10.988-39.245 22.092-47.935L37.849 0l5.77 6.064c6.585 6.92 14.026 20.42 16.472 29.886.876 3.391 1.878 9.542 2.227 13.669.623 7.37.708 7.558 4.804 10.627 8.018 6.008 9.05 10.99 5.646 27.273-2.893 13.838-4.705 14.618-14.552 6.264-3.566-3.025-6.921-5.5-7.456-5.5-.535 0-2.645.987-4.689 2.193-4.965 2.93-11.534 2.879-17.569-.135l-4.66-2.327-6.641 5.635c-7.004 5.942-8.123 6.394-10.83 4.384zm35.617-48.867c3.77-1.927 5.639-5.132 5.662-9.71.031-6.036-4.035-10.173-10-10.173-3.447 0-4.794.617-7.706 3.528-3.17 3.171-3.472 3.938-2.984 7.578 1.04 7.753 8.505 12.113 15.028 8.777zm-7.555-5.133c-3.028-2.333-2.63-7.396.698-8.913 1.97-.897 2.966-.789 5 .545 3.054 2 3.26 4.9.541 7.618-2.31 2.31-3.958 2.509-6.24.75z" fill="#030303"/><path d="M32.262 114.727l-2.538-5.009-2.53 1.658c-1.944 1.273-2.804 1.384-3.71.477-1.252-1.251-1.698-13.464-.534-14.631.376-.378 3.599.045 7.162.939 5.216 1.308 7.325 1.407 10.817.507 9.267-2.388 9.3-2.368 9.631 5.832.239 5.884-.006 7.38-1.287 7.872-.87.334-2.387-.123-3.373-1.015-.985-.891-2.016-1.621-2.291-1.621-.276 0-1.555 2.25-2.843 5-3.077 6.571-5.17 6.57-8.504-.009z" fill="#080808"/></svg>